<?xml version="1.0" encoding="UTF-8"?>
<svg id="Layer_2" data-name="Layer 2" xmlns="http://www.w3.org/2000/svg" viewBox="0 0 107.18 22">
  <defs>
    <style>
      .cls-1 {
        fill: #fff;
        stroke-width: 0px;
      }
    </style>
  </defs>
  <g id="Layer_1-2" data-name="Layer 1">
    <g>
      <g>
        <path class="cls-1" d="M28.87,16.01c-.27-.15-.49-.36-.65-.63-.16-.27-.23-.56-.23-.9s.08-.63.23-.9c.16-.27.37-.47.65-.63.28-.15.59-.23.93-.23.27,0,.51.04.73.13s.41.22.57.4l-.32.31c-.26-.27-.58-.41-.96-.41-.25,0-.48.06-.69.17-.2.11-.37.27-.48.47-.12.2-.17.42-.17.67s.06.47.17.67c.12.2.28.36.48.47.21.11.43.17.69.17.38,0,.7-.14.96-.41l.32.31c-.16.18-.35.31-.57.4-.22.09-.47.14-.74.14-.34,0-.65-.08-.93-.23Z"/>
        <path class="cls-1" d="M34.08,16.2l-.74-1.05c-.09,0-.16,0-.21,0h-.84v1.04h-.49v-3.42h1.33c.44,0,.79.11,1.04.32.25.21.38.5.38.87,0,.26-.07.49-.2.67-.13.19-.32.32-.56.41l.81,1.15h-.53ZM33.83,14.54c.16-.13.24-.32.24-.57s-.08-.44-.24-.57-.4-.2-.71-.2h-.83v1.54h.83c.31,0,.55-.07.71-.2Z"/>
        <path class="cls-1" d="M37.83,15.77v.42h-2.48v-3.42h2.41v.42h-1.92v1.05h1.71v.42h-1.71v1.1h1.99ZM36.86,11.87h.6l-.82.64h-.44l.66-.64Z"/>
        <path class="cls-1" d="M38.62,12.78h1.44c.36,0,.68.07.96.21.28.14.5.34.65.6s.23.56.23.89-.08.63-.23.89c-.15.26-.37.46-.65.6s-.6.21-.96.21h-1.44v-3.42ZM40.03,15.77c.28,0,.52-.05.73-.16.21-.11.37-.26.49-.45.11-.19.17-.42.17-.67s-.06-.48-.17-.67c-.11-.19-.28-.34-.49-.45-.21-.11-.45-.16-.73-.16h-.92v2.57h.92Z"/>
        <path class="cls-1" d="M42.66,12.78h.49v3.42h-.49v-3.42Z"/>
        <path class="cls-1" d="M44.85,13.2h-1.17v-.42h2.83v.42h-1.17v2.99h-.48v-2.99Z"/>
        <path class="cls-1" d="M47.6,16.01c-.28-.15-.49-.36-.65-.63-.16-.27-.24-.57-.24-.89s.08-.63.24-.89c.16-.27.38-.48.65-.63s.59-.23.93-.23.65.08.93.23.49.36.65.63c.16.27.23.56.23.9s-.08.63-.23.9-.37.47-.65.63-.59.23-.93.23-.66-.08-.93-.23ZM49.21,15.63c.2-.11.36-.27.47-.47s.17-.42.17-.67-.06-.47-.17-.67c-.12-.2-.27-.36-.47-.47s-.43-.17-.68-.17-.48.06-.68.17c-.2.11-.36.27-.48.47-.12.2-.17.42-.17.67s.06.47.17.67c.12.2.28.36.48.47.2.11.43.17.68.17s.48-.06.68-.17Z"/>
        <path class="cls-1" d="M51.34,16.12c-.24-.08-.43-.18-.56-.31l.18-.38c.13.12.3.21.5.29.2.07.41.11.63.11.28,0,.49-.05.64-.14s.21-.22.21-.38c0-.12-.04-.21-.12-.29s-.17-.13-.28-.17c-.11-.04-.27-.08-.48-.13-.26-.06-.46-.12-.62-.19-.16-.06-.29-.16-.41-.29s-.17-.3-.17-.52c0-.18.05-.35.14-.49.1-.15.24-.26.44-.35.2-.09.44-.13.73-.13.2,0,.4.03.6.08.2.05.36.13.5.22l-.16.39c-.14-.09-.3-.16-.46-.21-.16-.05-.32-.07-.48-.07-.28,0-.48.05-.62.15-.14.1-.21.23-.21.39,0,.12.04.21.12.29s.18.13.29.17c.12.04.27.08.47.13.26.06.46.12.62.19s.29.16.4.28c.11.13.17.3.17.51,0,.18-.05.34-.15.49-.1.15-.25.27-.44.35-.2.09-.44.13-.73.13-.26,0-.51-.04-.75-.12Z"/>
        <path class="cls-1" d="M57.82,13.1c.25.21.38.5.38.87s-.13.66-.38.87c-.25.21-.6.32-1.04.32h-.84v1.04h-.49v-3.42h1.33c.44,0,.79.11,1.04.32ZM57.47,14.54c.16-.13.24-.32.24-.57s-.08-.44-.24-.57-.4-.2-.71-.2h-.83v1.53h.83c.31,0,.55-.07.71-.2Z"/>
        <path class="cls-1" d="M61.2,16.2l-.74-1.05c-.09,0-.16,0-.21,0h-.84v1.04h-.49v-3.42h1.33c.44,0,.79.11,1.04.32.25.21.38.5.38.87,0,.26-.07.49-.2.67-.13.19-.32.32-.56.41l.81,1.15h-.53ZM60.95,14.54c.16-.13.24-.32.24-.57s-.08-.44-.24-.57-.4-.2-.71-.2h-.83v1.54h.83c.31,0,.55-.07.71-.2Z"/>
        <path class="cls-1" d="M64.95,15.77v.42h-2.48v-3.42h2.41v.42h-1.92v1.05h1.71v.42h-1.71v1.1h1.99Z"/>
        <path class="cls-1" d="M68.68,12.78v3.42h-.4l-2.05-2.55v2.55h-.49v-3.42h.4l2.05,2.55v-2.55h.49Z"/>
        <path class="cls-1" d="M69.71,12.78h1.44c.36,0,.68.07.96.21.28.14.5.34.65.6s.23.56.23.89-.08.63-.23.89c-.15.26-.37.46-.65.6s-.6.21-.96.21h-1.44v-3.42ZM71.12,15.77c.28,0,.52-.05.73-.16.21-.11.37-.26.49-.45.11-.19.17-.42.17-.67s-.06-.48-.17-.67c-.11-.19-.28-.34-.49-.45-.21-.11-.45-.16-.73-.16h-.92v2.57h.92Z"/>
        <path class="cls-1" d="M75.87,15.34h-1.82l-.38.85h-.5l1.55-3.42h.48l1.55,3.42h-.51l-.38-.85ZM75.7,14.95l-.74-1.68-.74,1.68h1.47Z"/>
        <path class="cls-1" d="M79.56,16.2l-.74-1.05c-.09,0-.16,0-.21,0h-.84v1.04h-.49v-3.42h1.33c.44,0,.79.11,1.04.32.25.21.38.5.38.87,0,.26-.07.49-.2.67-.13.19-.32.32-.56.41l.81,1.15h-.53ZM79.3,14.54c.16-.13.24-.32.24-.57s-.08-.44-.24-.57-.4-.2-.71-.2h-.83v1.54h.83c.31,0,.55-.07.71-.2Z"/>
        <path class="cls-1" d="M80.82,12.78h.49v3.42h-.49v-3.42Z"/>
        <path class="cls-1" d="M82.95,16.01c-.28-.15-.49-.36-.65-.63-.16-.27-.24-.57-.24-.89s.08-.63.24-.89c.16-.27.38-.48.65-.63s.59-.23.93-.23.65.08.93.23.49.36.65.63c.16.27.23.56.23.9s-.08.63-.23.9-.37.47-.65.63-.59.23-.93.23-.66-.08-.93-.23ZM84.56,15.63c.2-.11.36-.27.47-.47s.17-.42.17-.67-.06-.47-.17-.67c-.12-.2-.27-.36-.47-.47s-.43-.17-.68-.17-.48.06-.68.17c-.2.11-.36.27-.48.47-.12.2-.17.42-.17.67s.06.47.17.67c.12.2.28.36.48.47.2.11.43.17.68.17s.48-.06.68-.17Z"/>
        <path class="cls-1" d="M86.69,16.12c-.24-.08-.43-.18-.56-.31l.18-.38c.13.12.3.21.5.29.2.07.41.11.63.11.28,0,.49-.05.64-.14s.21-.22.21-.38c0-.12-.04-.21-.12-.29s-.17-.13-.28-.17c-.11-.04-.27-.08-.48-.13-.26-.06-.46-.12-.62-.19-.16-.06-.29-.16-.41-.29s-.17-.3-.17-.52c0-.18.05-.35.14-.49.1-.15.24-.26.44-.35.2-.09.44-.13.73-.13.2,0,.4.03.6.08.2.05.36.13.5.22l-.16.39c-.14-.09-.3-.16-.46-.21-.16-.05-.32-.07-.48-.07-.28,0-.48.05-.62.15-.14.1-.21.23-.21.39,0,.12.04.21.12.29s.18.13.29.17c.12.04.27.08.47.13.26.06.46.12.62.19s.29.16.4.28c.11.13.17.3.17.51,0,.18-.05.34-.15.49-.1.15-.25.27-.44.35-.2.09-.44.13-.73.13-.26,0-.51-.04-.75-.12Z"/>
      </g>
      <g>
        <path class="cls-1" d="M31.37,8.93h-2.34l-.5,1.12h-.46l1.92-4.21h.44l1.92,4.21h-.47l-.5-1.12ZM31.21,8.57l-1.01-2.26-1.01,2.26h2.02Z"/>
        <path class="cls-1" d="M33.04,5.85h.44v3.82h2.35v.38h-2.8v-4.21Z"/>
        <path class="cls-1" d="M39.76,5.85l-1.86,4.21h-.44l-1.86-4.21h.48l1.61,3.65,1.62-3.65h.45Z"/>
        <path class="cls-1" d="M42.88,8.93h-2.34l-.5,1.12h-.46l1.92-4.21h.44l1.92,4.21h-.47l-.5-1.12ZM42.71,8.57l-1.01-2.26-1.01,2.26h2.02Z"/>
        <path class="cls-1" d="M47.42,10.05l-.96-1.35c-.11.01-.22.02-.34.02h-1.13v1.33h-.44v-4.21h1.57c.54,0,.96.13,1.26.38.3.26.46.61.46,1.06,0,.33-.08.61-.25.83s-.4.39-.71.49l1.03,1.44h-.49ZM47.06,8.06c.22-.18.33-.44.33-.78s-.11-.6-.33-.78c-.22-.18-.54-.27-.95-.27h-1.12v2.11h1.12c.42,0,.73-.09.95-.28Z"/>
        <path class="cls-1" d="M51.86,9.67v.38h-2.97v-4.21h2.88v.38h-2.44v1.5h2.18v.38h-2.18v1.56h2.53Z"/>
        <path class="cls-1" d="M55.94,9.67v.38h-3.45v-.31l2.79-3.51h-2.75v-.38h3.33v.31l-2.78,3.51h2.85Z"/>
        <path class="cls-1" d="M60.98,9.15h-1.95l-.37.9h-1l1.87-4.21h.96l1.88,4.21h-1.02l-.37-.9ZM60.67,8.41l-.67-1.61-.67,1.61h1.33Z"/>
        <path class="cls-1" d="M63.18,9.63c-.33-.33-.5-.81-.5-1.42v-2.36h.97v2.32c0,.75.31,1.13.94,1.13.3,0,.54-.09.7-.27s.24-.47.24-.86v-2.32h.96v2.36c0,.62-.17,1.09-.5,1.42-.33.33-.8.5-1.4.5s-1.07-.17-1.4-.5Z"/>
        <path class="cls-1" d="M68.25,6.64h-1.35v-.79h3.66v.79h-1.35v3.41h-.97v-3.41Z"/>
        <path class="cls-1" d="M71.89,9.84c-.35-.19-.62-.45-.82-.78s-.3-.7-.3-1.11.1-.78.3-1.11.47-.59.82-.78c.35-.19.74-.28,1.18-.28s.83.09,1.18.28c.35.19.62.45.82.78s.3.7.3,1.11-.1.78-.3,1.11-.47.59-.82.78c-.35.19-.74.28-1.18.28s-.83-.09-1.18-.28ZM73.74,9.12c.2-.11.36-.27.47-.48.11-.2.17-.44.17-.7s-.06-.49-.17-.7c-.11-.2-.27-.36-.47-.48-.2-.11-.42-.17-.67-.17s-.47.06-.67.17c-.2.11-.36.27-.47.48-.11.2-.17.44-.17.7s.06.49.17.7c.11.2.27.36.47.48.2.11.42.17.67.17s.47-.06.67-.17Z"/>
        <path class="cls-1" d="M79.93,10.05v-2.52s-1.24,2.08-1.24,2.08h-.44l-1.23-2.02v2.47h-.91v-4.21h.81l1.57,2.61,1.55-2.61h.8v4.21s-.9,0-.9,0Z"/>
        <path class="cls-1" d="M82.7,9.84c-.35-.19-.62-.45-.82-.78s-.3-.7-.3-1.11.1-.78.3-1.11.47-.59.82-.78c.35-.19.74-.28,1.18-.28s.83.09,1.18.28c.35.19.62.45.82.78s.3.7.3,1.11-.1.78-.3,1.11-.47.59-.82.78c-.35.19-.74.28-1.18.28s-.83-.09-1.18-.28ZM84.55,9.12c.2-.11.36-.27.47-.48.11-.2.17-.44.17-.7s-.06-.49-.17-.7c-.11-.2-.27-.36-.47-.48-.2-.11-.42-.17-.67-.17s-.47.06-.67.17c-.2.11-.36.27-.47.48-.11.2-.17.44-.17.7s.06.49.17.7c.11.2.27.36.47.48.2.11.42.17.67.17s.47-.06.67-.17Z"/>
        <path class="cls-1" d="M87.72,6.64h-1.35v-.79h3.66v.79h-1.35v3.41h-.97v-3.41Z"/>
        <path class="cls-1" d="M91.36,9.84c-.35-.19-.62-.45-.82-.78s-.3-.7-.3-1.11.1-.78.3-1.11.47-.59.82-.78c.35-.19.74-.28,1.18-.28s.83.09,1.18.28c.35.19.62.45.82.78s.3.7.3,1.11-.1.78-.3,1.11-.47.59-.82.78c-.35.19-.74.28-1.18.28s-.83-.09-1.18-.28ZM93.21,9.12c.2-.11.36-.27.47-.48.11-.2.17-.44.17-.7s-.06-.49-.17-.7c-.11-.2-.27-.36-.47-.48-.2-.11-.42-.17-.67-.17s-.47.06-.67.17c-.2.11-.36.27-.47.48-.11.2-.17.44-.17.7s.06.49.17.7c.11.2.27.36.47.48.2.11.42.17.67.17s.47-.06.67-.17Z"/>
        <path class="cls-1" d="M98.25,10.05l-.81-1.17h-.9v1.17h-.97v-4.21h1.82c.37,0,.7.06.97.19.27.12.49.3.63.53.15.23.22.5.22.81s-.07.58-.23.81c-.15.23-.36.4-.64.52l.94,1.35h-1.04ZM98.01,6.83c-.15-.13-.37-.19-.67-.19h-.79v1.47h.79c.29,0,.51-.06.67-.19.15-.13.23-.31.23-.54s-.08-.42-.23-.54Z"/>
        <path class="cls-1" d="M103.24,9.27v.78h-3.26v-4.21h3.18v.78h-2.21v.91h1.95v.76h-1.95v.97h2.29Z"/>
        <path class="cls-1" d="M104.44,9.99c-.31-.09-.56-.21-.75-.35l.33-.73c.18.13.39.24.64.32.25.08.5.12.75.12.28,0,.48-.04.61-.12s.2-.19.2-.33c0-.1-.04-.18-.12-.25-.08-.07-.18-.12-.3-.16-.12-.04-.29-.08-.5-.13-.32-.08-.58-.15-.79-.23-.2-.08-.38-.2-.53-.37-.15-.17-.22-.39-.22-.67,0-.24.07-.47.2-.66.13-.2.33-.36.6-.47.27-.12.59-.17.98-.17.27,0,.53.03.79.1.26.06.48.16.67.28l-.3.74c-.39-.22-.78-.33-1.17-.33-.27,0-.47.04-.6.13-.13.09-.2.2-.2.35s.07.25.23.32.38.14.69.21c.32.08.58.15.79.23.2.08.38.2.53.36s.22.39.22.67c0,.24-.07.46-.2.66-.13.2-.34.36-.6.47-.27.12-.59.17-.98.17-.33,0-.65-.05-.96-.14Z"/>
      </g>
      <g>
        <g>
          <path class="cls-1" d="M13.65,14.57h-5.91l-1.3,3.37h2.43l.68-2.07h3.87l.68,2.07h.85l-1.31-3.37ZM10.7,6.93l-2.67,6.91h5.35l-2.69-6.91ZM11.48,9.94l1,3.01h-1.98l.99-3.01Z"/>
          <path class="cls-1" d="M22.55,12.7c0,5.11-3.15,10.37-6.5,9.11,0,0,.96-.88,1.84-1.63.95-.86,3.75-5.86,1.71-6.69-.25-.1-1.46,0-2.18.1-.38.05-.84.32-1.18.55l1.41,3.79h-1.91l-4.69-11.97h2.13l1.02,2.75h0c4.34,2.08,6.63,3.15,5.85-4.42.75.98,2.69,4.53,2.48,8.41Z"/>
        </g>
        <path class="cls-1" d="M3.12,7.44s2.77-5.27,7.93-5.27,8.3,5.12,8.3,5.12c0,0,.46-2.95-1.89-5.22C15.11-.19,11.76,0,10.87,0s-4.39.39-6.49,2.89c-1.38,1.64-1.27,4.55-1.27,4.55Z"/>
        <path class="cls-1" d="M4.67,20.19c.88.74,1.84,1.63,1.84,1.63C3.17,23.07,0,17.82.02,12.7c-.21-3.88,1.72-7.43,2.47-8.41-.81,7.9,1.72,6.41,6.42,4.16l.93-2.48h.5l-4.69,11.97h-.27l1.31-3.51c-.28-.23-.99-.76-1.55-.83-.71-.1-1.92-.2-2.17-.1-2.04.83.76,5.83,1.72,6.69Z"/>
      </g>
    </g>
  </g>
</svg>