<?xml version="1.0" encoding="UTF-8"?>
<svg id="Layer_2" data-name="Layer 2" xmlns="http://www.w3.org/2000/svg" viewBox="0 0 26.64 25.97">
  <defs>
    <style>
      .cls-1 {
        fill: #fff;
        stroke-width: 0px;
      }
    </style>
  </defs>
  <g id="Layer_1-2" data-name="Layer 1">
    <g>
      <g>
        <path class="cls-1" d="M16.11,17.2h-6.97l-1.53,3.97h2.86l.81-2.45h4.57l.81,2.45h1l-1.54-3.97ZM12.63,8.18l-3.15,8.16h6.32l-3.17-8.16ZM13.56,11.73l1.18,3.55h-2.34l1.17-3.55Z"/>
        <path class="cls-1" d="M26.62,14.99c.01,6.04-3.72,12.24-7.67,10.76,0,0,1.13-1.04,2.18-1.92,1.12-1.02,4.43-6.91,2.02-7.9-.3-.12-1.73,0-2.58.12-.45.06-.99.37-1.39.65l1.67,4.48h-2.25l-5.53-14.13h2.52l1.21,3.24h0c5.12,2.46,7.83,3.72,6.9-5.22.89,1.15,3.17,5.34,2.92,9.93Z"/>
      </g>
      <path class="cls-1" d="M3.68,8.78S6.95,2.56,13.03,2.56s9.8,6.04,9.8,6.04c0,0,.54-3.49-2.23-6.16C17.84-.23,13.88,0,12.84,0s-5.18.46-7.66,3.41c-1.62,1.93-1.5,5.37-1.5,5.37Z"/>
      <path class="cls-1" d="M5.51,23.83c1.04.88,2.18,1.92,2.18,1.92C3.74,27.24,0,21.03.02,14.99-.23,10.41,2.04,6.22,2.93,5.07c-.96,9.33,2.03,7.56,7.58,4.91l1.09-2.93h.59l-5.54,14.13h-.32l1.54-4.14c-.33-.28-1.17-.9-1.83-.98-.84-.12-2.27-.24-2.57-.12-2.4.98.9,6.88,2.02,7.9Z"/>
    </g>
  </g>
</svg>