<?xml version="1.0" encoding="UTF-8"?>
<svg id="Layer_2" data-name="Layer 2" xmlns="http://www.w3.org/2000/svg" viewBox="0 0 27.8 23.08">
  <defs>
    <style>
      .cls-1 {
        fill: #1c4275;
        stroke-width: 0px;
      }
    </style>
  </defs>
  <g id="Layer_1-2" data-name="Layer 1">
    <g>
      <g>
        <path class="cls-1" d="M16.81,15.29h-7.28l-1.6,3.53h2.99l.84-2.18h4.77l.84,2.18h1.05l-1.61-3.53ZM13.17,7.27l-3.29,7.25h6.59l-3.31-7.25ZM14.14,10.42l1.23,3.16h-2.44l1.22-3.16Z"/>
        <path class="cls-1" d="M27.78,13.32c.01,5.37-3.88,10.88-8,9.56,0,0,1.18-.93,2.27-1.71,1.17-.91,4.62-6.14,2.11-7.02-.31-.11-1.8,0-2.69.11-.47.05-1.03.33-1.45.58l1.74,3.98h-2.35l-5.77-12.56h2.62l1.26,2.88h0c5.34,2.19,8.17,3.31,7.2-4.64.93,1.02,3.31,4.75,3.05,8.82Z"/>
      </g>
      <path class="cls-1" d="M3.84,7.8S7.25,2.28,13.6,2.28s10.23,5.37,10.23,5.37c0,0,.57-3.1-2.32-5.47C18.61-.2,14.48,0,13.39,0s-5.41.41-7.99,3.03c-1.69,1.72-1.57,4.77-1.57,4.77Z"/>
      <path class="cls-1" d="M5.75,21.18c1.09.78,2.27,1.71,2.27,1.71C3.9,24.21,0,18.69.02,13.32-.24,9.25,2.13,5.53,3.06,4.5c-1,8.29,2.12,6.72,7.9,4.36l1.14-2.6h.62l-5.78,12.56h-.33l1.61-3.68c-.34-.25-1.22-.8-1.91-.87-.87-.11-2.37-.21-2.68-.11-2.51.87.94,6.11,2.11,7.02Z"/>
    </g>
  </g>
</svg>