<?xml version="1.0" encoding="UTF-8"?>
<svg id="Layer_2" data-name="Layer 2" xmlns="http://www.w3.org/2000/svg" viewBox="0 0 31.15 30.93">
  <defs>
    <style>
      .cls-1 {
        fill: #1c4275;
      }

      .cls-1, .cls-2 {
        stroke-width: 0px;
      }

      .cls-2 {
        fill: #fff;
      }
    </style>
  </defs>
  <g id="Layer_1-2" data-name="Layer 1">
    <g>
      <rect class="cls-1" width="31.15" height="30.93"/>
      <g>
        <g>
          <path class="cls-2" d="M19.08,19.57h-6.97l-1.53,3.97h2.86l.81-2.45h4.57l.81,2.45h1l-1.54-3.97ZM15.6,10.55l-3.15,8.16h6.32l-3.17-8.16ZM16.53,14.1l1.18,3.55h-2.34l1.17-3.55Z"/>
          <path class="cls-2" d="M29.59,17.36c.01,6.04-3.72,12.24-7.67,10.76,0,0,1.13-1.04,2.18-1.92,1.12-1.02,4.43-6.91,2.02-7.9-.3-.12-1.73,0-2.58.12-.45.06-.99.37-1.39.65l1.67,4.48h-2.25l-5.53-14.13h2.52l1.21,3.24h0c5.12,2.46,7.83,3.72,6.9-5.22.89,1.15,3.17,5.34,2.92,9.93Z"/>
        </g>
        <path class="cls-2" d="M6.65,11.15s3.27-6.22,9.36-6.22,9.8,6.04,9.8,6.04c0,0,.54-3.49-2.23-6.16-2.77-2.67-6.73-2.44-7.77-2.44s-5.18.46-7.66,3.41c-1.62,1.93-1.5,5.37-1.5,5.37Z"/>
        <path class="cls-2" d="M8.48,26.2c1.04.88,2.18,1.92,2.18,1.92-3.95,1.49-7.68-4.72-7.67-10.76-.25-4.59,2.02-8.77,2.91-9.93-.96,9.33,2.03,7.56,7.58,4.91l1.09-2.93h.59l-5.54,14.13h-.32l1.54-4.14c-.33-.28-1.17-.9-1.83-.98-.84-.12-2.27-.24-2.57-.12-2.4.98.9,6.88,2.02,7.9Z"/>
      </g>
    </g>
  </g>
</svg>